<mxfile host="app.diagrams.net" modified="2022-10-12T13:50:58.493Z" agent="5.0 (Windows NT 10.0; Win64; x64) AppleWebKit/537.36 (KHTML, like Gecko) Chrome/106.0.0.0 Safari/537.36 Edg/106.0.1370.37" etag="wJkNULg0R6CNE4Aq_EW0" version="20.4.0" type="github">
  <diagram id="djYih0L67EzcV_CNFMFE" name="第 1 页">
    <mxGraphModel dx="733" dy="440" grid="1" gridSize="10" guides="1" tooltips="1" connect="1" arrows="1" fold="1" page="1" pageScale="1" pageWidth="827" pageHeight="1169" math="0" shadow="0">
      <root>
        <mxCell id="0" />
        <mxCell id="1" parent="0" />
      </root>
    </mxGraphModel>
  </diagram>
</mxfile>
